<?xml version="1.0" encoding="UTF-8" standalone="no"?>
<!-- Created with Inkscape (http://www.inkscape.org/) -->

<svg
   version="1.1"
   id="svg2"
   width="1229.96"
   height="294.49332"
   viewBox="0 0 1229.96 294.49332"
   sodipodi:docname="IT_Finanziato_dall_Unione_europea_RGB_POS.svg"
   inkscape:version="1.3.2 (091e20e, 2023-11-25, custom)"
   xmlns:inkscape="http://www.inkscape.org/namespaces/inkscape"
   xmlns:sodipodi="http://sodipodi.sourceforge.net/DTD/sodipodi-0.dtd"
   xmlns="http://www.w3.org/2000/svg"
   xmlns:svg="http://www.w3.org/2000/svg">
  <defs
     id="defs6" />
  <sodipodi:namedview
     id="namedview4"
     pagecolor="#ffffff"
     bordercolor="#000000"
     borderopacity="0.25"
     inkscape:showpageshadow="2"
     inkscape:pageopacity="0.0"
     inkscape:pagecheckerboard="0"
     inkscape:deskcolor="#d1d1d1"
     inkscape:zoom="1.0593841"
     inkscape:cx="441.29415"
     inkscape:cy="312.91767"
     inkscape:window-width="1920"
     inkscape:window-height="991"
     inkscape:window-x="-9"
     inkscape:window-y="-9"
     inkscape:window-maximized="1"
     inkscape:current-layer="g8" />
  <g
     id="g8"
     inkscape:groupmode="layer"
     inkscape:label="ink_ext_XXXXXX"
     transform="matrix(1.3333333,0,0,-1.3333333,0,294.49333)">
    <g
       id="g10"
       transform="scale(0.1)">
      <path
         d="M 159.055,158.281 H 2995.08 V 2048.98 H 159.055 V 158.281"
         style="fill:#2a3c93;fill-opacity:1;fill-rule:nonzero;stroke:none"
         id="path14" />
      <path
         d="m 1516.64,1637.02 59.84,43.67 59.85,-43.67 -22.78,70.63 60.79,43.67 h -74.93 l -22.93,71.48 -22.93,-71.56 -74.88,0.08 60.74,-43.67 -22.77,-70.63"
         style="fill:#fbca07;fill-opacity:1;fill-rule:nonzero;stroke:none"
         id="path16" />
      <path
         d="m 1206.95,1553.82 59.84,43.67 59.81,-43.67 -22.74,70.63 60.75,43.68 h -74.93 l -22.92,71.55 -22.93,-71.64 -74.89,0.09 60.74,-43.68 -22.73,-70.63"
         style="fill:#fbca07;fill-opacity:1;fill-rule:nonzero;stroke:none"
         id="path18" />
      <path
         d="m 1040.19,1512.57 -22.93,-71.64 -74.881,0.08 60.741,-43.67 -22.772,-70.63 59.842,43.67 59.84,-43.67 -22.77,70.63 60.74,43.67 h -74.88 l -22.93,71.56"
         style="fill:#fbca07;fill-opacity:1;fill-rule:nonzero;stroke:none"
         id="path20" />
      <path
         d="m 957.066,1061.08 59.814,-43.67 -22.743,70.62 60.743,43.68 h -74.884 l -22.93,71.56 -22.929,-71.72 -74.918,0.16 60.777,-43.68 -22.769,-70.62 59.839,43.67"
         style="fill:#fbca07;fill-opacity:1;fill-rule:nonzero;stroke:none"
         id="path22" />
      <path
         d="m 1063.12,821.48 -22.93,71.559 -22.93,-71.641 -74.881,0.082 60.741,-43.671 -22.772,-70.629 59.842,43.75 59.84,-43.75 -22.77,70.629 60.74,43.671 h -74.88"
         style="fill:#fbca07;fill-opacity:1;fill-rule:nonzero;stroke:none"
         id="path24" />
      <path
         d="m 1290.15,594.449 -22.93,71.481 -22.89,-71.559 -74.92,0.078 60.74,-43.668 -22.73,-70.633 59.84,43.672 59.8,-43.672 -22.73,70.633 60.74,43.668 h -74.92"
         style="fill:#fbca07;fill-opacity:1;fill-rule:nonzero;stroke:none"
         id="path26" />
      <path
         d="m 1599.45,512.18 -22.93,71.558 -22.89,-71.636 -74.92,0.078 60.74,-43.668 -22.73,-70.633 59.84,43.672 59.8,-43.672 -22.77,70.633 60.78,43.668 h -74.92"
         style="fill:#fbca07;fill-opacity:1;fill-rule:nonzero;stroke:none"
         id="path28" />
      <path
         d="m 1908.75,594.449 -22.89,71.481 -22.97,-71.559 -74.84,0.078 60.7,-43.668 -22.73,-70.633 59.84,43.672 59.84,-43.672 -22.81,70.633 60.78,43.668 h -74.92"
         style="fill:#fbca07;fill-opacity:1;fill-rule:nonzero;stroke:none"
         id="path30" />
      <path
         d="m 2135.86,821.48 -22.97,71.559 -22.97,-71.641 -74.84,0.082 60.78,-43.671 -22.81,-70.629 59.84,43.75 59.84,-43.75 -22.81,70.629 60.78,43.671 h -74.84"
         style="fill:#fbca07;fill-opacity:1;fill-rule:nonzero;stroke:none"
         id="path32" />
      <path
         d="m 2292.97,1132.57 h -74.92 l -22.97,71.56 -22.89,-71.64 -74.92,0.08 60.78,-43.67 -22.74,-70.63 59.77,43.75 59.84,-43.75 -22.73,70.63 60.78,43.67"
         style="fill:#fbca07;fill-opacity:1;fill-rule:nonzero;stroke:none"
         id="path34" />
      <path
         d="m 2053.04,1327.65 59.84,43.67 59.85,-43.67 -22.81,70.63 60.78,43.6 h -74.85 l -22.97,71.55 -22.96,-71.64 -74.85,0.09 60.78,-43.6 -22.81,-70.63"
         style="fill:#fbca07;fill-opacity:1;fill-rule:nonzero;stroke:none"
         id="path36" />
      <path
         d="m 1886.72,1739.6 -22.89,-71.64 -74.92,0.17 60.7,-43.75 -22.73,-70.64 59.92,43.75 59.76,-43.75 -22.73,70.64 60.78,43.75 h -75 l -22.89,71.47"
         style="fill:#fbca07;fill-opacity:1;fill-rule:nonzero;stroke:none"
         id="path38" />
      <g
         id="g40"
         transform="scale(10)">
        <g
           aria-label="NextGenerationEU"
           transform="matrix(1,0,0,-1,330.686,15.8941)"
           id="text44"
           style="font-size:51px;font-family:Arial;-inkscape-font-specification:ArialMT;fill:#505256">
          <path
             d="M 3.8847656,0 V -36.506836 H 8.840332 L 28.015137,-7.8442383 V -36.506836 h 4.631836 V 0 H 27.691406 L 8.5166016,-28.6875 V 0 Z"
             id="path102" />
          <path
             d="m 58.296928,-8.5166016 4.631836,0.5727539 q -1.095703,4.0590821 -4.059082,6.300293 -2.963379,2.24121095 -7.570312,2.24121095 -5.802246,0 -9.213867,-3.56103515 -3.386719,-3.5859375 -3.386719,-10.0356441 0,-6.673829 3.436523,-10.359375 3.436524,-3.685547 8.915039,-3.685547 5.3042,0 8.666016,3.61084 3.361816,3.610839 3.361816,10.160156 0,0.398437 -0.0249,1.195312 H 43.33062 q 0.249023,4.3579104 2.465332,6.6738284 2.216308,2.315918 5.52832,2.315918 2.465332,0 4.208496,-1.2949219 1.743164,-1.2949219 2.76416,-4.1337891 z M 43.579643,-15.763184 h 14.76709 q -0.298828,-3.336914 -1.693359,-5.005371 -2.141602,-2.589843 -5.553223,-2.589843 -3.087891,0 -5.20459,2.066894 -2.091797,2.066895 -2.315918,5.52832 z"
             id="path104" />
          <path
             d="m 65.56794,0 9.662109,-13.746094 -8.939941,-12.700195 h 5.603027 l 4.059082,6.200684 q 1.145508,1.768066 1.842774,2.963378 1.095703,-1.643554 2.017089,-2.913574 l 4.45752,-6.250488 h 5.354004 L 80.484444,-13.995117 90.320869,0 H 84.817451 L 79.388741,-8.2177734 77.944405,-10.434082 70.996651,0 Z"
             id="path106" />
          <path
             d="m 103.84284,-4.0092773 0.64746,3.95947261 q -1.89258,0.3984375 -3.38672,0.3984375 -2.440425,0 -3.785152,-0.77197265 Q 95.973701,-1.1953125 95.42585,-2.4404297 94.877998,-3.7104492 94.877998,-7.7446289 V -22.959961 h -3.287109 v -3.486328 h 3.287109 v -6.549316 l 4.45752,-2.689454 v 9.23877 h 4.507322 v 3.486328 h -4.507322 v 15.4643555 q 0,1.9174805 0.224121,2.4653321 0.249023,0.5478515 0.771971,0.871582 0.54785,0.3237305 1.54395,0.3237305 0.74707,0 1.96728,-0.1743164 z"
             id="path108" />
          <path
             d="m 125.88188,-14.318848 v -4.283203 l 15.46436,-0.0249 v 13.5468749 q -3.56104,2.8388672 -7.34619,4.2832031 -3.78516,1.41943359 -7.76954,1.41943359 -5.3789,0 -9.78662,-2.29101559 -4.38281,-2.315918 -6.62402,-6.6738282 -2.24121,-4.3579098 -2.24121,-9.7368168 0,-5.329101 2.21631,-9.936035 2.24121,-4.631836 6.4248,-6.873047 4.1836,-2.241211 9.63721,-2.241211 3.95947,0 7.14697,1.294922 3.2124,1.27002 5.03028,3.561036 1.81787,2.291015 2.76416,5.976562 l -4.35791,1.195313 q -0.82178,-2.789063 -2.042,-4.382813 -1.22021,-1.59375 -3.48632,-2.540039 -2.26612,-0.971191 -5.03028,-0.971191 -3.31201,0 -5.72754,1.020996 -2.41552,0.996093 -3.90967,2.639648 -1.46923,1.643555 -2.29101,3.61084 -1.39453,3.386719 -1.39453,7.346191 0,4.88086 1.66845,8.167969 1.69336,3.2871094 4.90577,4.8808594 3.2124,1.59375 6.82324,1.59375 3.13769,0 6.12598,-1.1953125 2.98828,-1.2202148 4.53222,-2.5898437 v -6.7983402 z"
             id="path110" />
          <path
             d="m 165.99904,-8.5166016 4.63183,0.5727539 q -1.0957,4.0590821 -4.05908,6.300293 -2.96338,2.24121095 -7.57031,2.24121095 -5.80225,0 -9.21387,-3.56103515 -3.38672,-3.5859375 -3.38672,-10.0356441 0,-6.673829 3.43653,-10.359375 3.43652,-3.685547 8.91504,-3.685547 5.3042,0 8.66601,3.61084 3.36182,3.610839 3.36182,10.160156 0,0.398437 -0.0249,1.195312 h -19.72266 q 0.24902,4.3579104 2.46533,6.6738284 2.21631,2.315918 5.52832,2.315918 2.46533,0 4.2085,-1.2949219 1.74316,-1.2949219 2.76416,-4.1337891 z m -14.71729,-7.2465824 h 14.76709 q -0.29882,-3.336914 -1.69336,-5.005371 -2.1416,-2.589843 -5.55322,-2.589843 -3.08789,0 -5.20459,2.066894 -2.0918,2.066895 -2.31592,5.52832 z"
             id="path112" />
          <path
             d="m 176.25934,0 v -26.446289 h 4.03418 v 3.760254 q 2.91357,-4.35791 8.41699,-4.35791 2.39063,0 4.38281,0.871582 2.01709,0.846679 3.01319,2.241211 0.99609,1.394531 1.39453,3.312011 0.24902,1.245118 0.24902,4.357911 V 0 h -4.48242 v -16.086914 q 0,-2.739258 -0.52295,-4.083984 -0.52295,-1.369629 -1.86768,-2.166504 -1.31982,-0.821778 -3.11279,-0.821778 -2.86377,0 -4.95557,1.817871 -2.06689,1.817872 -2.06689,6.89795 V 0 Z"
             id="path114" />
          <path
             d="m 222.72661,-8.5166016 4.63183,0.5727539 q -1.0957,4.0590821 -4.05908,6.300293 -2.96338,2.24121095 -7.57031,2.24121095 -5.80225,0 -9.21387,-3.56103515 -3.38672,-3.5859375 -3.38672,-10.0356441 0,-6.673829 3.43653,-10.359375 3.43652,-3.685547 8.91504,-3.685547 5.3042,0 8.66601,3.61084 3.36182,3.610839 3.36182,10.160156 0,0.398437 -0.0249,1.195312 H 207.7603 q 0.24902,4.3579104 2.46533,6.6738284 2.21631,2.315918 5.52832,2.315918 2.46533,0 4.2085,-1.2949219 1.74316,-1.2949219 2.76416,-4.1337891 z m -14.71729,-7.2465824 h 14.76709 q -0.29883,-3.336914 -1.69336,-5.005371 -2.1416,-2.589843 -5.55322,-2.589843 -3.08789,0 -5.20459,2.066894 -2.0918,2.066895 -2.31592,5.52832 z"
             id="path116" />
          <path
             d="m 232.93613,0 v -26.446289 h 4.03418 v 4.009277 q 1.54394,-2.813965 2.83886,-3.710449 1.31983,-0.896484 2.88868,-0.896484 2.26611,0 4.60693,1.444336 l -1.54395,4.158691 q -1.64355,-0.971191 -3.28711,-0.971191 -1.46923,0 -2.63964,0.896484 -1.17041,0.871582 -1.66846,2.44043 -0.74707,2.390625 -0.74707,5.229492 V 0 Z"
             id="path118" />
          <path
             d="m 267.22763,-3.262207 q -2.49023,2.1166992 -4.80615,2.98828122 -2.29102,0.87158203 -4.93067,0.87158203 -4.35791,0 -6.69873,-2.11669925 -2.34082,-2.1416015 -2.34082,-5.4536132 0,-1.9423829 0.87159,-3.5361328 0.89648,-1.618652 2.31591,-2.589844 1.44434,-0.971191 3.23731,-1.469238 1.31982,-0.348633 3.98437,-0.672363 5.42871,-0.647461 7.99366,-1.543946 0.0249,-0.921386 0.0249,-1.17041 0,-2.739258 -1.27002,-3.859863 -1.71826,-1.519043 -5.10498,-1.519043 -3.1626,0 -4.68164,1.120605 -1.49414,1.095704 -2.21631,3.909668 l -4.38281,-0.597656 q 0.59765,-2.813965 1.96728,-4.532226 1.36963,-1.743165 3.95947,-2.664551 2.58985,-0.946289 6.00147,-0.946289 3.38672,0 5.50342,0.796875 2.1167,0.796875 3.11279,2.01709 0.99609,1.195312 1.39453,3.038085 0.22412,1.145508 0.22412,4.13379 v 5.976562 q 0,6.2504883 0.27393,7.9189453 Q 271.95908,-1.519043 272.80576,0 h -4.68165 q -0.69726,-1.3945312 -0.89648,-3.262207 z m -0.37353,-10.010742 q -2.44043,0.996094 -7.32129,1.693359 -2.76416,0.398438 -3.90967,0.896485 -1.14551,0.498046 -1.76807,1.4692378 -0.62256,0.9462891 -0.62256,2.1166992 0,1.7929688 1.34473,2.9882813 1.36963,1.1953125 3.98437,1.1953125 2.58985,0 4.60694,-1.1206055 2.01709,-1.1455078 2.96338,-3.112793 0.72217,-1.5190429 0.72217,-4.4824223 z"
             id="path120" />
          <path
             d="m 288.12021,-4.0092773 0.64746,3.95947261 q -1.89258,0.3984375 -3.38672,0.3984375 -2.44043,0 -3.78516,-0.77197265 -1.34472,-0.77197266 -1.89257,-2.01708986 -0.54786,-1.2700195 -0.54786,-5.3041992 V -22.959961 h -3.2871 v -3.486328 h 3.2871 v -6.549316 l 4.45752,-2.689454 v 9.23877 h 4.50733 v 3.486328 h -4.50733 v 15.4643555 q 0,1.9174805 0.22413,2.4653321 0.24902,0.5478515 0.77197,0.871582 0.54785,0.3237305 1.54394,0.3237305 0.74707,0 1.96729,-0.1743164 z"
             id="path122" />
          <path
             d="m 292.52841,-31.352051 v -5.154785 h 4.48242 v 5.154785 z m 0,31.352051 v -26.446289 h 4.48242 V 0 Z"
             id="path124" />
          <path
             d="m 302.16513,-13.223145 q 0,-7.346191 4.08398,-10.882324 3.41163,-2.938476 8.31739,-2.938476 5.45361,0 8.91504,3.585937 3.46142,3.561035 3.46142,9.861328 0,5.1049808 -1.54394,8.0434573 -1.51905,2.9135743 -4.45752,4.5322266 -2.91358,1.61865235 -6.375,1.61865235 -5.55322,0 -8.98975,-3.56103515 -3.41162,-3.5610352 -3.41162,-10.2597661 z m 4.60693,0 q 0,5.0800786 2.21631,7.6201177 2.21631,2.5151367 5.57813,2.5151367 3.33691,0 5.55322,-2.5400391 2.21631,-2.5400391 2.21631,-7.7446293 0,-4.905761 -2.24121,-7.420898 -2.21631,-2.540039 -5.52832,-2.540039 -3.36182,0 -5.57813,2.515137 -2.21631,2.515136 -2.21631,7.595214 z"
             id="path126" />
          <path
             d="m 332.1969,0 v -26.446289 h 4.03418 v 3.760254 q 2.91357,-4.35791 8.41699,-4.35791 2.39063,0 4.38281,0.871582 2.01709,0.846679 3.01319,2.241211 0.99609,1.394531 1.39453,3.312011 0.24902,1.245118 0.24902,4.357911 V 0 h -4.48242 v -16.086914 q 0,-2.739258 -0.52295,-4.083984 -0.52295,-1.369629 -1.86767,-2.166504 -1.31983,-0.821778 -3.1128,-0.821778 -2.86377,0 -4.95556,1.817871 -2.0669,1.817872 -2.0669,6.89795 V 0 Z"
             id="path128" />
          <path
             d="m 361.23358,0 v -36.506836 h 26.39649 v 4.308106 h -21.56543 v 11.181152 h 20.1958 v 4.283203 h -20.1958 v 12.4262695 h 22.41211 V 0 Z"
             id="path130" />
          <path
             d="m 419.10703,-36.506836 h 4.83105 v 21.092285 q 0,5.5034182 -1.24512,8.7407229 -1.24511,3.2373047 -4.50732,5.2792969 -3.23731,2.01708979 -8.5166,2.01708979 -5.12989,0 -8.39209,-1.76806639 -3.26221,-1.7680664 -4.65674,-5.1049805 -1.39453,-3.3618164 -1.39453,-9.1640627 v -21.092285 h 4.83105 v 21.067383 q 0,4.756348 0.87158,7.0224608 0.89649,2.241211 3.03809,3.4614258 2.1665,1.2202148 5.2793,1.2202148 5.3291,0 7.59521,-2.4155273 2.26612,-2.4155274 2.26612,-9.2885741 z"
             id="path132" />
        </g>
      </g>
      <path
         d="m 3347.37,1628.48 v 422.33 h 289.53 v -71.44 h -204.25 v -99.97 h 176.31 v -71.45 h -176.31 v -179.47 h -85.28"
         style="fill:#2a3c93;fill-opacity:1;fill-rule:nonzero;stroke:none"
         id="path46" />
      <path
         d="m 3706.61,1628.48 v 305.95 h 80.96 v -305.95 z m 0,347.43 v 74.9 h 80.96 v -74.9 h -80.96"
         style="fill:#2a3c93;fill-opacity:1;fill-rule:nonzero;stroke:none"
         id="path48" />
      <path
         d="m 4148.84,1628.48 h -80.96 v 156.14 c 0,33.03 -1.73,54.4 -5.18,64.1 -3.46,9.69 -9.08,17.23 -16.86,22.62 -7.77,5.37 -17.14,8.06 -28.09,8.06 -14.02,0 -26.6,-3.84 -37.74,-11.52 -11.13,-7.69 -18.77,-17.86 -22.9,-30.54 -4.13,-12.68 -6.19,-36.11 -6.19,-70.29 v -138.57 h -80.95 v 305.95 h 75.19 v -44.95 c 26.69,34.57 60.3,51.86 100.83,51.86 17.86,0 34.18,-3.22 48.97,-9.65 14.79,-6.44 25.98,-14.65 33.57,-24.64 7.57,-9.98 12.86,-21.31 15.84,-33.99 2.97,-12.67 4.47,-30.82 4.47,-54.45 v -190.13"
         style="fill:#2a3c93;fill-opacity:1;fill-rule:nonzero;stroke:none"
         id="path50" />
      <path
         d="m 4399.76,1775.4 c -10.37,-3.45 -26.8,-7.59 -49.27,-12.39 -22.47,-4.8 -37.16,-9.5 -44.07,-14.11 -10.57,-7.49 -15.85,-17 -15.85,-28.52 0,-11.34 4.22,-21.13 12.67,-29.39 8.45,-8.26 19.2,-12.38 32.27,-12.38 14.59,0 28.52,4.79 41.77,14.4 9.8,7.29 16.23,16.22 19.3,26.79 2.11,6.91 3.18,20.07 3.18,39.47 z m -108.32,65.69 -73.47,13.25 c 8.25,29.57 22.47,51.46 42.64,65.68 20.16,14.21 50.12,21.32 89.88,21.32 36.1,0 62.99,-4.28 80.66,-12.82 17.67,-8.55 30.11,-19.4 37.31,-32.55 7.2,-13.16 10.81,-37.31 10.81,-72.46 l -0.87,-94.49 c 0,-26.89 1.3,-46.72 3.89,-59.49 2.59,-12.78 7.44,-26.46 14.55,-41.05 h -80.09 c -2.12,5.37 -4.71,13.34 -7.78,23.91 -1.34,4.8 -2.3,7.97 -2.89,9.5 -13.82,-13.44 -28.61,-23.53 -44.35,-30.25 -15.75,-6.71 -32.56,-10.08 -50.42,-10.08 -31.51,0 -56.32,8.55 -74.47,25.64 -18.15,17.09 -27.22,38.7 -27.22,64.82 0,17.29 4.12,32.7 12.38,46.24 8.25,13.54 19.83,23.91 34.72,31.12 14.88,7.19 36.34,13.48 64.38,18.86 37.84,7.11 64.06,13.73 78.66,19.88 v 8.07 c 0,15.55 -3.85,26.64 -11.53,33.27 -7.68,6.63 -22.18,9.94 -43.5,9.94 -14.41,0 -25.64,-2.84 -33.7,-8.5 -8.07,-5.67 -14.6,-15.61 -19.59,-29.81"
         style="fill:#2a3c93;fill-opacity:1;fill-rule:nonzero;stroke:none"
         id="path52" />
      <path
         d="m 4837.36,1628.48 h -80.95 v 156.14 c 0,33.03 -1.73,54.4 -5.19,64.1 -3.46,9.69 -9.07,17.23 -16.85,22.62 -7.78,5.37 -17.14,8.06 -28.09,8.06 -14.02,0 -26.6,-3.84 -37.74,-11.52 -11.14,-7.69 -18.77,-17.86 -22.9,-30.54 -4.14,-12.68 -6.2,-36.11 -6.2,-70.29 v -138.57 h -80.94 v 305.95 h 75.18 v -44.95 c 26.69,34.57 60.3,51.86 100.83,51.86 17.86,0 34.18,-3.22 48.98,-9.65 14.78,-6.44 25.97,-14.65 33.56,-24.64 7.58,-9.98 12.86,-21.31 15.84,-33.99 2.98,-12.67 4.47,-30.82 4.47,-54.45 v -190.13"
         style="fill:#2a3c93;fill-opacity:1;fill-rule:nonzero;stroke:none"
         id="path54" />
      <path
         d="m 4886.91,1628.48 v 63.09 l 114.66,131.65 c 18.82,21.51 32.75,36.78 41.78,45.81 -9.41,-0.58 -21.81,-0.96 -37.17,-1.15 l -108.03,-0.58 v 67.13 h 252.93 v -57.34 l -116.95,-134.82 -41.2,-44.65 c 22.47,1.34 36.4,2.01 41.77,2.01 h 125.32 v -71.15 h -273.11"
         style="fill:#2a3c93;fill-opacity:1;fill-rule:nonzero;stroke:none"
         id="path56" />
      <path
         d="m 5214.46,1628.48 v 305.95 h 80.96 v -305.95 z m 0,347.43 v 74.9 h 80.96 v -74.9 h -80.96"
         style="fill:#2a3c93;fill-opacity:1;fill-rule:nonzero;stroke:none"
         id="path58" />
      <path
         d="m 5547.21,1775.4 c -10.37,-3.45 -26.8,-7.59 -49.27,-12.39 -22.47,-4.8 -37.16,-9.5 -44.07,-14.11 -10.57,-7.49 -15.85,-17 -15.85,-28.52 0,-11.34 4.22,-21.13 12.67,-29.39 8.45,-8.26 19.2,-12.38 32.27,-12.38 14.59,0 28.52,4.79 41.77,14.4 9.8,7.29 16.23,16.22 19.3,26.79 2.11,6.91 3.18,20.07 3.18,39.47 z m -108.32,65.69 -73.47,13.25 c 8.25,29.57 22.47,51.46 42.64,65.68 20.16,14.21 50.12,21.32 89.88,21.32 36.1,0 62.99,-4.28 80.66,-12.82 17.67,-8.55 30.11,-19.4 37.31,-32.55 7.21,-13.16 10.81,-37.31 10.81,-72.46 l -0.87,-94.49 c 0,-26.89 1.3,-46.72 3.89,-59.49 2.59,-12.78 7.44,-26.46 14.55,-41.05 h -80.09 c -2.12,5.37 -4.71,13.34 -7.77,23.91 -1.35,4.8 -2.31,7.97 -2.89,9.5 -13.83,-13.44 -28.62,-23.53 -44.36,-30.25 -15.75,-6.71 -32.56,-10.08 -50.42,-10.08 -31.5,0 -56.32,8.55 -74.47,25.64 -18.15,17.09 -27.22,38.7 -27.22,64.82 0,17.29 4.12,32.7 12.38,46.24 8.26,13.54 19.83,23.91 34.72,31.12 14.88,7.19 36.34,13.48 64.38,18.86 37.84,7.11 64.06,13.73 78.66,19.88 v 8.07 c 0,15.55 -3.85,26.64 -11.53,33.27 -7.68,6.63 -22.18,9.94 -43.5,9.94 -14.41,0 -25.64,-2.84 -33.7,-8.5 -8.07,-5.67 -14.6,-15.61 -19.59,-29.81"
         style="fill:#2a3c93;fill-opacity:1;fill-rule:nonzero;stroke:none"
         id="path60" />
      <path
         d="m 5846.82,1934.43 v -64.54 h -55.32 v -123.3 c 0,-24.97 0.53,-39.52 1.59,-43.64 1.05,-4.14 3.45,-7.54 7.2,-10.23 3.74,-2.69 8.3,-4.03 13.68,-4.03 7.49,0 18.34,2.59 32.56,7.77 l 6.92,-62.8 c -18.83,-8.06 -40.15,-12.1 -63.97,-12.1 -14.59,0 -27.75,2.46 -39.46,7.35 -11.72,4.9 -20.31,11.24 -25.78,19.01 -5.48,7.78 -9.27,18.29 -11.38,31.55 -1.74,9.41 -2.6,28.42 -2.6,57.04 v 133.38 h -37.16 v 64.54 h 37.16 v 60.78 l 81.24,47.25 v -108.03 h 55.32"
         style="fill:#2a3c93;fill-opacity:1;fill-rule:nonzero;stroke:none"
         id="path62" />
      <path
         d="m 5967.23,1781.45 c 0,-30.34 7.19,-53.58 21.61,-69.72 14.39,-16.13 32.16,-24.19 53.29,-24.19 21.12,0 38.84,8.06 53.15,24.19 14.31,16.14 21.47,39.57 21.47,70.3 0,29.96 -7.16,53.01 -21.47,69.14 -14.31,16.13 -32.03,24.2 -53.15,24.2 -21.13,0 -38.9,-8.07 -53.29,-24.2 -14.42,-16.13 -21.61,-39.38 -21.61,-69.72 z m -82.97,4.32 c 0,26.89 6.63,52.91 19.87,78.07 13.26,25.16 32.03,44.37 56.33,57.62 24.29,13.25 51.42,19.88 81.39,19.88 46.28,0 84.2,-15.03 113.78,-45.09 29.58,-30.06 44.37,-68.04 44.37,-113.93 0,-46.29 -14.93,-84.66 -44.79,-115.09 -29.88,-30.45 -67.47,-45.67 -112.8,-45.67 -28.03,0 -54.78,6.34 -80.22,19.02 -25.45,12.67 -44.8,31.26 -58.06,55.74 -13.24,24.49 -19.87,54.31 -19.87,89.45"
         style="fill:#2a3c93;fill-opacity:1;fill-rule:nonzero;stroke:none"
         id="path64" />
      <path
         d="m 3410.75,1080.08 c 0,-32.65 4.51,-56.27 13.55,-70.87 13.05,-21.12 31.3,-31.69 54.73,-31.69 18.63,0 34.48,7.921 47.54,23.77 13.06,15.84 19.59,39.51 19.59,71.01 0,35.15 -6.35,60.45 -19.02,75.91 -12.68,15.46 -28.91,23.19 -48.68,23.19 -19.21,0 -35.3,-7.63 -48.25,-22.9 -12.97,-15.27 -19.46,-38.08 -19.46,-68.42 z m 216.08,-159.6 h -75.2 v 44.942 c -12.49,-17.481 -27.23,-30.492 -44.22,-39.031 -17,-8.551 -34.14,-12.821 -51.42,-12.821 -35.15,0 -65.26,14.16 -90.32,42.489 -25.06,28.332 -37.59,67.851 -37.59,118.551 0,51.85 12.19,91.27 36.58,118.25 24.39,26.98 55.21,40.48 92.48,40.48 34.18,0 63.76,-14.21 88.73,-42.64 v 152.11 h 80.96 V 920.48"
         style="fill:#2a3c93;fill-opacity:1;fill-rule:nonzero;stroke:none"
         id="path66" />
      <path
         d="m 3875.44,1067.4 c -10.37,-3.45 -26.8,-7.58 -49.27,-12.38 -22.47,-4.81 -37.16,-9.51 -44.07,-14.12 -10.57,-7.49 -15.85,-16.99 -15.85,-28.52 0,-11.33 4.22,-21.13 12.68,-29.38 8.44,-8.262 19.2,-12.391 32.26,-12.391 14.59,0 28.53,4.801 41.77,14.403 9.8,7.297 16.23,16.228 19.31,26.798 2.11,6.91 3.17,20.07 3.17,39.46 z m -108.32,65.69 -73.47,13.25 c 8.25,29.57 22.47,51.47 42.64,65.68 20.17,14.21 50.13,21.32 89.88,21.32 36.11,0 62.99,-4.28 80.67,-12.82 17.66,-8.55 30.1,-19.4 37.3,-32.55 7.21,-13.16 10.81,-37.31 10.81,-72.46 l -0.87,-94.48 c 0,-26.901 1.3,-46.721 3.89,-59.499 2.6,-12.769 7.44,-26.453 14.55,-41.051 h -80.09 c -2.12,5.379 -4.71,13.348 -7.77,23.918 -1.35,4.793 -2.31,7.961 -2.89,9.5 -13.83,-13.449 -28.62,-23.527 -44.36,-30.25 -15.75,-6.718 -32.56,-10.078 -50.42,-10.078 -31.5,0 -56.32,8.539 -74.47,25.641 -18.14,17.09 -27.22,38.687 -27.22,64.809 0,17.29 4.12,32.7 12.39,46.24 8.25,13.54 19.82,23.91 34.71,31.12 14.89,7.19 36.34,13.48 64.39,18.86 37.83,7.11 64.05,13.74 78.65,19.88 v 8.07 c 0,15.56 -3.85,26.64 -11.52,33.28 -7.69,6.62 -22.19,9.93 -43.51,9.93 -14.4,0 -25.63,-2.83 -33.7,-8.5 -8.07,-5.66 -14.6,-15.6 -19.59,-29.81"
         style="fill:#2a3c93;fill-opacity:1;fill-rule:nonzero;stroke:none"
         id="path68" />
      <path
         d="m 4034.75,920.48 v 422.33 h 80.95 V 920.48 h -80.95"
         style="fill:#2a3c93;fill-opacity:1;fill-rule:nonzero;stroke:none"
         id="path70" />
      <path
         d="m 4198.66,920.48 v 422.33 h 80.96 V 920.48 h -80.96"
         style="fill:#2a3c93;fill-opacity:1;fill-rule:nonzero;stroke:none"
         id="path72" />
      <path
         d="m 4362.02,1192.72 -15.27,78.65 v 71.44 h 88.15 v -71.44 l -13.25,-78.65 h -59.63"
         style="fill:#2a3c93;fill-opacity:1;fill-rule:nonzero;stroke:none"
         id="path74" />
      <path
         d="m 4502.88,1342.81 h 85.27 v -228.74 c 0,-36.3 1.06,-59.83 3.18,-70.58 3.64,-17.28 12.33,-31.16 26.07,-41.62 13.73,-10.472 32.5,-15.71 56.32,-15.71 24.2,0 42.44,4.942 54.74,14.84 12.28,9.89 19.68,22.04 22.18,36.44 2.5,14.41 3.75,38.32 3.75,71.74 v 233.63 h 85.27 v -221.82 c 0,-50.71 -2.31,-86.53 -6.92,-107.45 -4.6,-20.938 -13.1,-38.61 -25.49,-53.009 -12.39,-14.41 -28.96,-25.89 -49.7,-34.441 -20.74,-8.531 -47.81,-12.809 -81.23,-12.809 -40.33,0 -70.93,4.66 -91.76,13.969 -20.84,9.309 -37.3,21.41 -49.41,36.301 -12.09,14.879 -20.07,30.48 -23.91,46.809 -5.58,24.2 -8.36,59.92 -8.36,107.17 v 225.28"
         style="fill:#2a3c93;fill-opacity:1;fill-rule:nonzero;stroke:none"
         id="path76" />
      <path
         d="m 5207.27,920.48 h -80.96 v 156.14 c 0,33.03 -1.73,54.4 -5.19,64.1 -3.45,9.7 -9.07,17.23 -16.85,22.62 -7.78,5.37 -17.14,8.06 -28.09,8.06 -14.02,0 -26.6,-3.84 -37.74,-11.52 -11.14,-7.69 -18.77,-17.86 -22.9,-30.54 -4.13,-12.67 -6.19,-36.11 -6.19,-70.29 V 920.48 h -80.95 v 305.95 h 75.18 v -44.94 c 26.69,34.56 60.31,51.85 100.83,51.85 17.87,0 34.18,-3.22 48.98,-9.65 14.78,-6.44 25.98,-14.65 33.56,-24.63 7.58,-9.99 12.86,-21.32 15.84,-34 2.98,-12.67 4.48,-30.82 4.48,-54.44 V 920.48"
         style="fill:#2a3c93;fill-opacity:1;fill-rule:nonzero;stroke:none"
         id="path78" />
      <path
         d="m 5289.37,920.48 v 305.95 h 80.95 V 920.48 Z m 0,347.43 v 74.9 h 80.95 v -74.9 h -80.95"
         style="fill:#2a3c93;fill-opacity:1;fill-rule:nonzero;stroke:none"
         id="path80" />
      <path
         d="m 5517.53,1073.45 c 0,-30.34 7.2,-53.58 21.61,-69.71 14.4,-16.131 32.16,-24.201 53.29,-24.201 21.12,0 38.84,8.07 53.16,24.201 14.3,16.13 21.46,39.56 21.46,70.29 0,29.96 -7.16,53.01 -21.46,69.14 -14.32,16.13 -32.04,24.2 -53.16,24.2 -21.13,0 -38.89,-8.07 -53.29,-24.2 -14.41,-16.13 -21.61,-39.38 -21.61,-69.72 z m -82.97,4.32 c 0,26.89 6.63,52.91 19.87,78.08 13.27,25.15 32.03,44.36 56.33,57.61 24.29,13.25 51.43,19.88 81.39,19.88 46.28,0 84.21,-15.03 113.79,-45.09 29.57,-30.06 44.36,-68.03 44.36,-113.93 0,-46.29 -14.93,-84.648 -44.79,-115.09 -29.88,-30.441 -67.46,-45.66 -112.8,-45.66 -28.03,0 -54.78,6.328 -80.22,19.008 -25.45,12.672 -44.79,31.262 -58.06,55.742 -13.24,24.49 -19.87,54.31 -19.87,89.45"
         style="fill:#2a3c93;fill-opacity:1;fill-rule:nonzero;stroke:none"
         id="path82" />
      <path
         d="m 6091.98,920.48 h -80.95 v 156.14 c 0,33.03 -1.73,54.4 -5.19,64.1 -3.46,9.7 -9.07,17.23 -16.86,22.62 -7.77,5.37 -17.13,8.06 -28.08,8.06 -14.02,0 -26.6,-3.84 -37.75,-11.52 -11.13,-7.69 -18.77,-17.86 -22.9,-30.54 -4.13,-12.67 -6.19,-36.11 -6.19,-70.29 V 920.48 h -80.94 v 305.95 h 75.18 v -44.94 c 26.69,34.56 60.3,51.85 100.83,51.85 17.86,0 34.18,-3.22 48.98,-9.65 14.78,-6.44 25.97,-14.65 33.56,-24.63 7.58,-9.99 12.86,-21.32 15.84,-34 2.98,-12.67 4.47,-30.82 4.47,-54.44 V 920.48"
         style="fill:#2a3c93;fill-opacity:1;fill-rule:nonzero;stroke:none"
         id="path84" />
      <path
         d="m 6355.86,1099.67 c -0.58,23.43 -6.63,41.24 -18.15,53.44 -11.53,12.19 -25.54,18.29 -42.06,18.29 -17.67,0 -32.26,-6.43 -43.78,-19.3 -11.53,-12.87 -17.2,-30.35 -17.01,-52.43 z m -4.61,-81.82 80.66,-13.53 c -10.37,-29.582 -26.74,-52.101 -49.12,-67.558 -22.37,-15.461 -50.37,-23.192 -83.97,-23.192 -53.2,0 -92.58,17.379 -118.12,52.141 -20.16,27.848 -30.24,62.989 -30.24,105.439 0,50.7 13.24,90.41 39.75,119.12 26.5,28.71 60.01,43.07 100.54,43.07 45.52,0 81.43,-15.03 107.75,-45.09 26.3,-30.06 38.89,-76.1 37.74,-138.13 h -202.81 c 0.56,-24.01 7.1,-42.69 19.59,-56.042 12.48,-13.348 28.03,-20.019 46.66,-20.019 12.67,0 23.34,3.461 31.98,10.371 8.64,6.922 15.17,18.06 19.59,33.42"
         style="fill:#2a3c93;fill-opacity:1;fill-rule:nonzero;stroke:none"
         id="path86" />
      <path
         d="m 6847.91,1099.67 c -0.58,23.43 -6.63,41.24 -18.15,53.44 -11.53,12.19 -25.54,18.29 -42.05,18.29 -17.68,0 -32.27,-6.43 -43.79,-19.3 -11.53,-12.87 -17.2,-30.35 -17.01,-52.43 z m -4.61,-81.82 80.66,-13.53 c -10.37,-29.582 -26.74,-52.101 -49.12,-67.558 -22.37,-15.461 -50.37,-23.192 -83.97,-23.192 -53.2,0 -92.58,17.379 -118.12,52.141 -20.16,27.848 -30.24,62.989 -30.24,105.439 0,50.7 13.24,90.41 39.75,119.12 26.5,28.71 60.02,43.07 100.54,43.07 45.52,0 81.43,-15.03 107.75,-45.09 26.31,-30.06 38.89,-76.1 37.74,-138.13 h -202.81 c 0.56,-24.01 7.1,-42.69 19.59,-56.042 12.48,-13.348 28.04,-20.019 46.66,-20.019 12.67,0 23.34,3.461 31.98,10.371 8.64,6.922 15.17,18.06 19.59,33.42"
         style="fill:#2a3c93;fill-opacity:1;fill-rule:nonzero;stroke:none"
         id="path88" />
      <path
         d="m 7195.63,920.48 v 45.809 c -11.15,-16.328 -25.79,-29.199 -43.94,-38.598 -18.15,-9.421 -37.31,-14.121 -57.47,-14.121 -20.56,0 -39,4.52 -55.31,13.539 -16.33,9.02 -28.14,21.7 -35.44,38.032 -7.3,16.32 -10.94,38.879 -10.94,67.689 v 193.6 h 80.95 v -140.59 c 0,-43.02 1.48,-69.38 4.46,-79.08 2.98,-9.701 8.4,-17.381 16.28,-23.049 7.87,-5.66 17.86,-8.492 29.96,-8.492 13.83,0 26.22,3.781 37.16,11.371 10.95,7.59 18.44,17 22.48,28.23 4.02,11.25 6.04,38.75 6.04,82.54 v 129.07 h 80.95 V 920.48 h -75.18"
         style="fill:#2a3c93;fill-opacity:1;fill-rule:nonzero;stroke:none"
         id="path90" />
      <path
         d="m 7432.15,920.48 h -80.96 v 305.95 h 75.2 v -43.5 c 12.86,20.54 24.43,34.08 34.71,40.62 10.28,6.52 21.94,9.79 35,9.79 18.44,0 36.2,-5.09 53.29,-15.27 l -25.05,-70.58 c -13.65,8.83 -26.32,13.25 -38.03,13.25 -11.34,0 -20.94,-3.12 -28.81,-9.36 -7.88,-6.24 -14.07,-17.53 -18.58,-33.85 -4.52,-16.33 -6.77,-50.51 -6.77,-102.56 v -94.49"
         style="fill:#2a3c93;fill-opacity:1;fill-rule:nonzero;stroke:none"
         id="path92" />
      <path
         d="m 7648.5,1073.45 c 0,-30.34 7.19,-53.58 21.61,-69.71 14.39,-16.131 32.16,-24.201 53.29,-24.201 21.12,0 38.84,8.07 53.15,24.201 14.31,16.13 21.47,39.56 21.47,70.29 0,29.96 -7.16,53.01 -21.47,69.14 -14.31,16.13 -32.03,24.2 -53.15,24.2 -21.13,0 -38.9,-8.07 -53.29,-24.2 -14.42,-16.13 -21.61,-39.38 -21.61,-69.72 z m -82.97,4.32 c 0,26.89 6.63,52.91 19.87,78.08 13.26,25.15 32.03,44.36 56.33,57.61 24.29,13.25 51.42,19.88 81.39,19.88 46.27,0 84.2,-15.03 113.78,-45.09 29.57,-30.06 44.37,-68.03 44.37,-113.93 0,-46.29 -14.93,-84.648 -44.8,-115.09 -29.87,-30.441 -67.46,-45.66 -112.79,-45.66 -28.04,0 -54.78,6.328 -80.22,19.008 -25.45,12.672 -44.8,31.262 -58.06,55.742 -13.24,24.49 -19.87,54.31 -19.87,89.45"
         style="fill:#2a3c93;fill-opacity:1;fill-rule:nonzero;stroke:none"
         id="path94" />
      <path
         d="m 8022.44,1078.64 c 0,-34.38 6.81,-59.78 20.45,-76.2 13.63,-16.42 30.25,-24.631 49.84,-24.631 18.82,0 34.47,7.531 46.96,22.611 12.48,15.08 18.73,39.81 18.73,74.19 0,32.07 -6.45,55.88 -19.31,71.44 -12.87,15.56 -28.81,23.34 -47.82,23.34 -19.79,0 -36.2,-7.64 -49.26,-22.9 -13.07,-15.28 -19.59,-37.89 -19.59,-67.85 z m -80.1,147.79 h 75.49 v -44.94 c 9.79,15.36 23.05,27.84 39.75,37.45 16.72,9.6 35.24,14.4 55.6,14.4 35.53,0 65.69,-13.93 90.46,-41.77 24.78,-27.85 37.16,-66.65 37.16,-116.39 0,-51.09 -12.48,-90.789 -37.44,-119.121 -24.97,-28.329 -55.23,-42.489 -90.75,-42.489 -16.91,0 -32.22,3.36 -45.95,10.078 -13.74,6.723 -28.19,18.25 -43.36,34.571 V 804.09 h -80.96 v 422.34"
         style="fill:#2a3c93;fill-opacity:1;fill-rule:nonzero;stroke:none"
         id="path96" />
      <path
         d="m 8486.84,1099.67 c -0.58,23.43 -6.63,41.24 -18.16,53.44 -11.52,12.19 -25.54,18.29 -42.05,18.29 -17.67,0 -32.26,-6.43 -43.79,-19.3 -11.52,-12.87 -17.2,-30.35 -17,-52.43 z m -4.61,-81.82 80.66,-13.53 c -10.37,-29.582 -26.75,-52.101 -49.12,-67.558 -22.37,-15.461 -50.37,-23.192 -83.98,-23.192 -53.2,0 -92.57,17.379 -118.11,52.141 -20.17,27.848 -30.24,62.989 -30.24,105.439 0,50.7 13.24,90.41 39.74,119.12 26.51,28.71 60.02,43.07 100.55,43.07 45.52,0 81.42,-15.03 107.74,-45.09 26.31,-30.06 38.9,-76.1 37.75,-138.13 H 8364.4 c 0.57,-24.01 7.1,-42.69 19.59,-56.042 12.48,-13.348 28.04,-20.019 46.66,-20.019 12.68,0 23.34,3.461 31.99,10.371 8.64,6.922 15.16,18.06 19.59,33.42"
         style="fill:#2a3c93;fill-opacity:1;fill-rule:nonzero;stroke:none"
         id="path98" />
      <path
         d="m 8802,1067.4 c -10.37,-3.45 -26.79,-7.58 -49.27,-12.38 -22.47,-4.81 -37.15,-9.51 -44.07,-14.12 -10.56,-7.49 -15.85,-16.99 -15.85,-28.52 0,-11.33 4.22,-21.13 12.68,-29.38 8.45,-8.262 19.2,-12.391 32.26,-12.391 14.59,0 28.53,4.801 41.77,14.403 9.81,7.297 16.23,16.228 19.31,26.798 2.11,6.91 3.17,20.07 3.17,39.46 z m -108.32,65.69 -73.47,13.25 c 8.26,29.57 22.48,51.47 42.64,65.68 20.17,14.21 50.13,21.32 89.88,21.32 36.11,0 62.99,-4.28 80.67,-12.82 17.66,-8.55 30.11,-19.4 37.3,-32.55 7.21,-13.16 10.81,-37.31 10.81,-72.46 l -0.87,-94.48 c 0,-26.901 1.3,-46.721 3.89,-59.499 2.6,-12.769 7.44,-26.453 14.55,-41.051 h -80.09 c -2.11,5.379 -4.7,13.348 -7.77,23.918 -1.35,4.793 -2.3,7.961 -2.89,9.5 -13.83,-13.449 -28.61,-23.527 -44.36,-30.25 -15.75,-6.718 -32.55,-10.078 -50.42,-10.078 -31.5,0 -56.31,8.539 -74.47,25.641 -18.14,17.09 -27.21,38.687 -27.21,64.809 0,17.29 4.12,32.7 12.38,46.24 8.25,13.54 19.82,23.91 34.71,31.12 14.89,7.19 36.34,13.48 64.39,18.86 37.83,7.11 64.05,13.74 78.65,19.88 v 8.07 c 0,15.56 -3.85,26.64 -11.52,33.28 -7.69,6.62 -22.19,9.93 -43.51,9.93 -14.4,0 -25.63,-2.83 -33.7,-8.5 -8.06,-5.66 -14.6,-15.6 -19.59,-29.81"
         style="fill:#2a3c93;fill-opacity:1;fill-rule:nonzero;stroke:none"
         id="path100" />
    </g>
  </g>
</svg>
